8_ID_stride2.mot
nRows=15
nColumns=38

name 8_ID_stride2.mot
datacolumns 38
datarows 15
range 0.3200000000 0.3900000000
endheader
time	pelvis_tilt_moment	pelvis_list_moment	pelvis_rotation_moment	pelvis_tx_force	pelvis_ty_force	pelvis_tz_force	hip_flexion_r_moment	hip_adduction_r_moment	hip_rotation_r_moment	knee_angle_r_moment	ankle_angle_r_moment	subtalar_angle_r_moment	mtp_angle_r_moment	hip_flexion_l_moment	hip_adduction_l_moment	hip_rotation_l_moment	knee_angle_l_moment	ankle_angle_l_moment	subtalar_angle_l_moment	mtp_angle_l_moment	lumbar_extension_moment	lumbar_bending_moment	lumbar_rotation_moment	arm_flex_r_moment	arm_add_r_moment	arm_rot_r_moment	elbow_flex_r_moment	pro_sup_r_moment	wrist_flex_r_moment	wrist_dev_r_moment	arm_flex_l_moment	arm_add_l_moment	arm_rot_l_moment	elbow_flex_l_moment	pro_sup_l_moment	wrist_flex_l_moment	wrist_dev_l_moment
        0.3200000000	       22.9429747293	      -27.5399302832	       23.2805178329	       39.3588577123	      -70.0078411158	      -51.0019869880	      -20.1197329731	       -9.6286931678	       -0.6462202617	       -2.5986330475	        2.6353679156	       -0.5860972850	        0.1479042659	       15.8894303656	      -14.0335529524	      -11.2259519709	      -12.6094946120	     -127.2717255116	       20.7193049142	       -0.0688441247	      -13.0078404815	       -2.4110583611	       34.1947082282	        4.7070918553	        3.6836426606	        3.3535307251	        2.4985373037	        0.0605243666	        0.4131568898	       -0.0872067892	       -2.8172405191	       -1.6403772391	       -2.5437397503	        1.7525481037	       -0.1355342375	       -0.2767121495	       -0.1875402202	
        0.3250000000	       18.2765415789	      -22.5052545990	       23.6387433787	       57.7553339758	      -39.2996088376	      -36.1256196949	      -21.5434923757	       -7.3419111414	       -1.1986448891	       -3.3782708797	        2.6293640751	       -0.5926529472	        0.1453317796	       20.1049093001	       -9.1142592123	       -8.3003239082	      -12.4691989163	     -109.7625100047	       18.9484566086	       -0.0753812945	      -12.1661146122	       -3.3617322696	       32.6319037509	        4.3056582621	        2.9017283741	        2.9227696059	        2.2262067058	        0.0576853742	        0.3710583277	       -0.0729417689	       -3.1425923156	       -1.0950160054	       -2.1618768902	        1.3587747265	       -0.1196723502	       -0.2500611580	       -0.1500621725	
        0.3300000000	       12.5729945669	      -17.3943905686	       26.2747551357	       76.3946303394	       -4.6229309976	      -21.8475887674	      -22.7809469847	       -4.0582713313	       -1.7683673120	       -4.3136082929	        2.6078350310	       -0.5957803157	        0.1418304056	       22.1755585640	       -4.4262891091	       -7.0356349584	      -13.1617788076	      -94.0316080130	       16.8500489697	       -0.0773186147	       -8.7929643884	       -4.7098734906	       31.4858764109	        3.9902963935	        2.1021606147	        2.4985995595	        2.0269852278	        0.0543829586	        0.3327516411	       -0.0661205847	       -3.4885085193	       -0.4857590111	       -1.7754622048	        1.0216055650	       -0.1051647569	       -0.2229144953	       -0.1194519034	
        0.3350000000	        7.5489495260	      -11.2115837164	       32.2683241447	       98.0340912534	       24.8088104920	      -14.9637766516	      -23.8486382290	       -0.0910626840	       -2.2942463848	       -5.3618561592	        2.5721388393	       -0.5962931937	        0.1370920168	       23.5134738708	        1.4150135510	       -6.9810584980	      -15.1686308222	      -81.1156531236	       14.9761670759	       -0.0754575652	       -4.5258169554	       -6.0091365005	       30.7209173420	        3.8035445307	        1.2945060076	        2.0804330231	        1.8802571507	        0.0507863209	        0.2973985276	       -0.0642452817	       -3.7971488490	        0.1634396211	       -1.3994155624	        0.7256119820	       -0.0920297001	       -0.1969712233	       -0.0942195347	
        0.3400000000	        3.5945989820	       -1.0623419457	       39.8763722887	      123.0344365501	       41.6684692936	      -17.4112769711	      -24.9463780813	        4.3412462116	       -2.7280434738	       -6.4985480369	        2.5139725249	       -0.5909079991	        0.1307493085	       27.5874069220	        8.5914815281	       -7.9841851762	      -16.0389988901	      -70.1566824698	       13.5073346841	       -0.0648473787	       -0.3942935272	       -7.0050944917	       30.1788928826	        3.7388226879	        0.4891762824	        1.6620262695	        1.7574144119	        0.0469706513	        0.2630792830	       -0.0652173435	       -4.0146126326	        0.8261105829	       -1.0404454966	        0.4505824297	       -0.0798087766	       -0.1727924633	       -0.0722349710	
        0.3450000000	       -0.0648463994	       14.7272064098	       46.6831876861	      148.5199048127	       36.0355689372	      -31.4849155869	      -26.5133768453	        9.0435659401	       -3.0460528411	       -7.7204078265	        2.4255012839	       -0.5791760770	        0.1226875703	       37.0701600373	       15.5573945329	       -7.6272319217	      -13.3415979272	      -58.9118557647	       12.1204180947	       -0.0455162067	        2.8036644571	       -7.5860496299	       29.5217710896	        3.7700317088	       -0.2954086843	        1.2376344913	        1.6104083830	        0.0431225109	        0.2271183283	       -0.0647814732	       -4.0892132515	        1.4634166631	       -0.7014914797	        0.1664420374	       -0.0675581566	       -0.1502983813	       -0.0501036331	
        0.3500000000	       -4.7499897295	       32.3534452645	       48.9656125245	      167.6335309703	        9.9131093510	      -50.8317754817	      -29.1730610182	       13.9236486012	       -3.1272366762	       -9.1411454077	        2.2974816147	       -0.5606763655	        0.1130553237	       49.3960803643	       19.7509532267	       -5.6221603741	       -8.1789211952	      -47.1635528473	       10.4927560978	       -0.0162724091	        3.6936073656	       -7.6201723765	       28.3652595568	        3.7669036516	       -1.0242949993	        0.8082409628	        1.3922870590	        0.0395440539	        0.1870663747	       -0.0600697854	       -4.0238925430	        2.0179799155	       -0.3837796843	       -0.1560633527	       -0.0540937589	       -0.1287274633	       -0.0241452857	
        0.3550000000	      -10.3183662762	       43.2374511530	       49.4926136617	      175.5868097347	      -41.5283294799	      -66.4143620992	      -33.0764453857	       18.8807978739	       -3.1373339679	      -10.8420730666	        2.1399034774	       -0.5396601238	        0.1029452504	       57.2768782046	       21.3311828293	       -1.8338316285	       -4.9952194269	      -36.4528398759	        8.7641672711	        0.0223954132	        3.8608964013	       -7.6117543838	       26.5469774338	        3.7346169459	       -1.6759196937	        0.3832852562	        1.0933469128	        0.0362952489	        0.1431216840	       -0.0480567613	       -3.8388056106	        2.4626710410	       -0.0834900674	       -0.5150812668	       -0.0391981398	       -0.1071504706	        0.0061506677	
        0.3600000000	      -16.4231689373	       45.3958936020	       45.9428512992	      170.5082116740	     -108.3687238298	      -72.8999722579	      -38.4926840915	       23.8198654604	       -2.8239061335	      -13.0395157367	        1.9680586031	       -0.5227165317	        0.0936754605	       58.6242038537	       20.9415681736	        2.1970990460	       -5.0238167108	      -28.3841309751	        7.1388141070	        0.0707925833	        2.0279867437	       -7.3989869296	       23.7207244854	        3.4698224814	       -2.2169553752	       -0.0248113593	        0.6914333638	        0.0334701327	        0.0949251872	       -0.0271457707	       -3.5594589555	        2.7667880743	        0.1987235659	       -0.9123460294	       -0.0223315414	       -0.0845649995	        0.0421579414	
        0.3650000000	      -20.2248288285	       33.6327009148	       41.0425905379	      150.6222298505	     -177.1723666526	      -62.6984635960	      -45.1355051045	       28.5224770560	       -2.2145099252	      -15.9265288472	        1.8115193349	       -0.5220988048	        0.0869181873	       49.0472358140	       21.1191118429	        5.4929695439	      -11.3927976589	      -24.3376660899	        6.0607056956	        0.1259160363	       -0.3752541690	       -7.2434978284	       20.0380812451	        2.9674796514	       -2.6228537032	       -0.3927309034	        0.2299029162	        0.0308514607	        0.0456220929	       -0.0001625924	       -3.2702511957	        2.9180867382	        0.4634778592	       -1.3070460295	       -0.0043543864	       -0.0600979969	        0.0807806913	
        0.3700000000	      -26.2430843387	       22.7174975553	       35.2370476086	      114.5910374063	     -202.4812130846	      -50.8584085280	      -52.9636635985	       32.7379475338	       -1.2570921285	      -19.7199957423	        1.6883089483	       -0.5381061325	        0.0855737644	       45.4159414276	       19.8413373701	        6.3075742089	      -10.9385060513	      -15.0014158638	        3.8403221956	        0.1847597312	       -2.6472166888	       -7.1286029868	       15.7481549727	        2.2164780515	       -2.8722387681	       -0.6964965324	       -0.2392065287	        0.0281889363	       -0.0007799803	        0.0295951406	       -3.0250442295	        2.8977605415	        0.7046257139	       -1.6511406612	        0.0133647039	       -0.0339724273	        0.1178837822	
        0.3750000000	      -26.9627168715	       11.0746828680	       29.0419330737	       69.7069206225	     -199.8334235130	      -30.2661523068	      -60.5343456836	       35.7292062789	        0.0667110187	      -24.2635882250	        1.6769061738	       -0.5825647756	        0.0877229500	       42.5245173731	       20.0536892727	        6.4855898832	       -9.1063320555	       -4.5856006805	        1.7332167980	        0.2428138518	       -3.4611549442	       -6.9540989599	       11.3302263484	        1.2576961926	       -2.8951654530	       -0.8755739358	       -0.6505292679	        0.0255233127	       -0.0380684369	        0.0580314844	       -2.9488781294	        2.7747677368	        0.8998672666	       -1.8842625020	        0.0286477920	       -0.0083687418	        0.1478871895	
        0.3800000000	      -23.6206710031	       -3.7691794048	       22.7977274496	       23.1518220957	     -174.3750576587	        5.8276990299	      -67.3811026359	       37.3715905516	        1.6998769425	      -29.3352807541	        1.7242205361	       -0.6525190521	        0.0968941820	       37.9995291019	       23.3032775495	        6.5733263875	       -7.8187451740	        2.0537639207	        0.5556157555	        0.2967701153	       -3.6752886102	       -6.6325144302	        7.2024208297	        0.1701502157	       -2.8106797296	       -0.9609650384	       -0.9884203591	        0.0236097785	       -0.0634927951	        0.0837703704	       -2.9319439556	        2.4824916143	        1.0221968422	       -2.0086668861	        0.0405507719	        0.0138038098	        0.1697779178	
        0.3850000000	      -13.2755496503	      -27.2240162566	       16.8769488975	      -18.5725405768	     -128.9460000702	       56.1044305509	      -73.4594060691	       36.9808946159	        3.5217298074	      -34.7787658603	        1.8433030019	       -0.7299928254	        0.1086599225	       25.7147425708	       30.0062968534	        7.3205843182	      -12.8325035691	        2.3256130649	        0.7062920727	        0.3416073404	       -2.4608741880	       -6.0036068463	        3.9303691955	       -0.9276768376	       -2.5090098035	       -0.8804784720	       -1.2264953760	        0.0235289694	       -0.0718263536	        0.1054538777	       -3.0955566517	        2.0560284423	        1.0296587424	       -2.0092950804	        0.0477291537	        0.0283795853	        0.1814152777	
        0.3900000000	       -2.0932880059	      -47.9719075101	       11.5263758051	      -54.8969818927	      -67.6004146296	      103.2322263510	      -79.0513418492	       34.8907516658	        5.3449072529	      -40.3472052416	        1.9705968478	       -0.7959085469	        0.1203475794	       16.2674063302	       35.8024663803	        7.5316678467	      -16.9056110939	        2.2657448706	        0.8467072601	        0.3735326971	       -0.6358062830	       -5.0396075688	        1.9327202516	       -1.9257867010	       -2.0281401092	       -0.6573220517	       -1.3958575635	        0.0259490863	       -0.0636548227	        0.1256150511	       -3.3932977323	        1.4783346615	        0.9286907932	       -1.9617818234	        0.0480249465	        0.0269776786	        0.1839562199	
